<svg width="44" height="44" viewBox="0 0 44 44" fill="none" xmlns="http://www.w3.org/2000/svg">
<g clip-path="url(#clip0_59_718)">
<path d="M44 0H29.9424V14.6706C29.9424 21.5426 35.5122 27.1124 42.3818 27.1124H44V0Z" fill="white"/>
<path d="M29.9424 42.1727V44H44V29.731H42.3842C35.5146 29.731 29.9448 35.3008 29.9448 42.1727H29.9424Z" fill="white"/>
<path d="M-1.97937 29.7286C1.1477 38.0643 9.19112 43.9976 18.6199 43.9976H27.369V42.1703C27.369 35.2984 21.7992 29.7286 14.9273 29.7286H-1.97937Z" fill="white"/>
<path d="M-3.37895 21.9988C-3.37895 23.7596 -3.17222 25.4728 -2.78015 27.1124H14.9249C21.7992 27.1124 27.3666 21.5426 27.3666 14.6706V0H18.6175C6.468 0 -3.37895 9.84933 -3.37895 21.9988Z" fill="white"/>
</g>
<defs>
<clipPath id="clip0_59_718">
<rect width="44" height="44" rx="22" transform="matrix(-1 0 0 1 44 0)" fill="white"/>
</clipPath>
</defs>
</svg>